<?xml version="1.0" encoding="UTF-8"?>
<svg width="48" height="20" viewBox="0 0 48 20" fill="none" xmlns="http://www.w3.org/2000/svg">
  <path d="M8.02 4.52C8.57 3.86 8.96 2.96 8.86 2.06C8.08 2.09 7.13 2.57 6.56 3.23C6.05 3.82 5.58 4.74 5.7 5.62C6.57 5.68 7.47 5.18 8.02 4.52Z" fill="black"/>
  <path d="M8.85 5.74C7.68 5.66 6.69 6.37 6.14 6.37C5.58 6.37 4.72 5.78 3.77 5.8C2.53 5.82 1.38 6.52 0.77 7.64C-0.5 9.89 0.37 13.24 1.59 15.02C2.19 15.89 2.9 16.86 3.85 16.83C4.76 16.79 5.11 16.25 6.21 16.25C7.3 16.25 7.62 16.83 8.58 16.81C9.57 16.79 10.18 15.93 10.77 15.05C11.45 14.04 11.73 13.06 11.74 12.99C11.73 12.98 9.87 12.24 9.85 10.01C9.84 8.13 11.31 7.25 11.37 7.21C10.53 5.96 9.19 5.79 8.85 5.74Z" fill="black"/>
  <path d="M19.99 3.18H16.51L16.5 16.7H19.73V11.93H22.39C24.86 11.93 26.5 10.3 26.5 7.54C26.5 4.78 24.89 3.18 22.45 3.18H19.99ZM19.73 9.66V5.45H22.16C23.6 5.45 24.47 6.27 24.47 7.54C24.47 8.81 23.6 9.66 22.15 9.66H19.73Z" fill="black"/>
  <path d="M32.33 9.98C31.51 9.52 31.41 9.42 31.41 9.13C31.41 8.71 31.81 8.4 32.45 8.4C33.13 8.4 33.82 8.77 34.38 9.23L35.43 7.35C34.57 6.66 33.54 6.29 32.48 6.29C30.47 6.29 29.11 7.41 29.11 9.23C29.11 10.82 30.11 11.61 31.76 12.44C32.64 12.93 32.83 13.11 32.83 13.47C32.83 13.93 32.39 14.24 31.71 14.24C30.89 14.24 30.08 13.81 29.46 13.21L28.32 15.03C29.28 15.93 30.47 16.45 31.68 16.45C33.82 16.45 35.15 15.33 35.15 13.44C35.15 11.74 34.15 10.98 32.33 9.98Z" fill="black"/>
  <path d="M41.26 14.24C40.44 14.24 39.63 13.81 39.01 13.21L37.87 15.03C38.83 15.93 40.02 16.45 41.23 16.45C43.37 16.45 44.7 15.33 44.7 13.44C44.7 11.74 43.7 10.98 41.88 9.98C41.06 9.52 40.96 9.42 40.96 9.13C40.96 8.71 41.36 8.4 42 8.4C42.68 8.4 43.37 8.77 43.93 9.23L44.98 7.35C44.12 6.66 43.09 6.29 42.03 6.29C40.02 6.29 38.66 7.41 38.66 9.23C38.66 10.82 39.66 11.61 41.31 12.44C42.19 12.93 42.38 13.11 42.38 13.47C42.38 13.93 41.94 14.24 41.26 14.24Z" fill="black"/>
</svg> 