<?xml version="1.0" encoding="UTF-8"?>
<svg width="48" height="16" viewBox="0 0 48 16" fill="none" xmlns="http://www.w3.org/2000/svg">
  <path d="M35.526 4.99901C35.552 4.80901 35.526 4.67201 35.421 4.56201C35.316 4.45201 35.105 4.39701 34.842 4.39701H32.684L32.631 4.72001C33.368 4.72001 33.947 4.77501 34.368 4.88501C34.789 4.99501 35.026 5.21901 35.079 5.55701L35.526 4.99901Z" fill="#253B80"/>
  <path d="M14.579 4.99901C14.605 4.80901 14.579 4.67201 14.474 4.56201C14.368 4.45201 14.158 4.39701 13.895 4.39701H11.737L11.684 4.72001C12.421 4.72001 13 4.77501 13.421 4.88501C13.842 4.99501 14.079 5.21901 14.132 5.55701L14.579 4.99901Z" fill="#179BD7"/>
  <path d="M42.105 2.66699H39.947L38.684 11.334H40.842L42.105 2.66699Z" fill="#253B80"/>
  <path d="M21.158 2.66699H19L17.737 11.334H19.895L21.158 2.66699Z" fill="#179BD7"/>
  <path d="M31.421 2.66699C30.684 2.66699 30.053 2.77699 29.526 2.99999C29 3.22299 28.579 3.55599 28.263 3.99999C27.947 4.44399 27.737 4.99999 27.632 5.66699C27.526 6.33399 27.579 6.88899 27.789 7.33299C28 7.77699 28.316 8.11099 28.737 8.33299C29.158 8.55499 29.684 8.66699 30.316 8.66699C31.053 8.66699 31.684 8.55599 32.211 8.33299C32.737 8.11099 33.158 7.77799 33.474 7.33299C33.789 6.88899 34 6.33399 34.105 5.66699C34.211 4.99999 34.158 4.44499 33.947 3.99999C33.737 3.55599 33.421 3.22199 33 2.99999C32.579 2.77799 32.053 2.66699 31.421 2.66699Z" fill="#253B80"/>
  <path d="M10.474 2.66699C9.73684 2.66699 9.10526 2.77699 8.57895 2.99999C8.05263 3.22299 7.63158 3.55599 7.31579 3.99999C7 4.44399 6.78947 4.99999 6.68421 5.66699C6.57895 6.33399 6.63158 6.88899 6.84211 7.33299C7.05263 7.77699 7.36842 8.11099 7.78947 8.33299C8.21053 8.55499 8.73684 8.66699 9.36842 8.66699C10.1053 8.66699 10.7368 8.55599 11.2632 8.33299C11.7895 8.11099 12.2105 7.77799 12.5263 7.33299C12.8421 6.88899 13.0526 6.33399 13.1579 5.66699C13.2632 4.99999 13.2105 4.44499 13 3.99999C12.7895 3.55599 12.4737 3.22199 12.0526 2.99999C11.6316 2.77799 11.1053 2.66699 10.474 2.66699Z" fill="#179BD7"/>
</svg> 