<?xml version="1.0" encoding="UTF-8"?>
<svg width="48" height="16" viewBox="0 0 48 16" fill="none" xmlns="http://www.w3.org/2000/svg">
  <path d="M21.1214 15.2498H17.2839L19.8214 1.25H23.6589L21.1214 15.2498Z" fill="#00579F"/>
  <path d="M34.4339 1.62476C33.7214 1.37476 32.5339 1.08726 31.0839 1.08726C27.2839 1.08726 24.5714 3.08726 24.5589 5.87476C24.5339 7.93726 26.4964 9.08726 27.9464 9.77476C29.4339 10.4748 29.9464 10.9248 29.9464 11.5498C29.9339 12.4998 28.7714 12.9248 27.6964 12.9248C26.2089 12.9248 25.4214 12.7248 24.2214 12.2248L23.7089 12.0123L23.1589 15.3748C23.9964 15.7123 25.5714 15.9998 27.2214 15.9998C31.2589 15.9998 33.9214 14.0248 33.9464 11.0623C33.9589 9.42476 32.8714 8.16226 30.5714 7.14976C29.1964 6.49976 28.3464 6.06226 28.3464 5.37476C28.3589 4.74976 29.0839 4.08726 30.7214 4.08726C32.0714 4.06226 33.0714 4.32476 33.8589 4.59976L34.2089 4.74976L34.7464 1.49976L34.4339 1.62476Z" fill="#00579F"/>
  <path d="M39.6589 10.1873C40.0089 9.24976 41.4714 5.51226 41.4714 5.51226C41.4589 5.53726 41.8089 4.61226 42.0089 4.06226L42.2839 5.39976C42.2839 5.39976 43.1714 9.39976 43.3464 10.1873C42.7089 10.1873 40.4214 10.1873 39.6589 10.1873ZM45.1714 1.24976H42.1714C41.2714 1.24976 40.5839 1.49976 40.1714 2.39976L34.4214 15.2498H38.4714C38.4714 15.2498 39.2714 13.1873 39.4464 12.7248C39.9214 12.7248 43.7714 12.7248 44.3714 12.7248C44.5089 13.3248 44.9214 15.2498 44.9214 15.2498H48.4714L45.1714 1.24976Z" fill="#00579F"/>
  <path d="M14.9214 1.24976L11.0839 11.0123L10.6714 9.14976C9.92143 6.89976 7.45893 4.42476 4.72143 3.14976L8.28393 15.2373H12.3589L18.9839 1.24976H14.9214Z" fill="#00579F"/>
  <path d="M6.92143 1.24976H0.771426L0.708926 1.54976C5.37143 2.69976 8.47143 5.64976 9.82143 9.14976L8.47143 2.41226C8.22143 1.52476 7.65893 1.27476 6.92143 1.24976Z" fill="#FAA61A"/>
</svg> 